# xmcd
#
# Track frame offsets: 
#        151
#        12892
#        27366
#        39259
#        55042
#        68802
#        80442
#        94513
#        108745
#        121722
#        136537
#        149794
#        163574
#        176637
#        189228
#        202770
#        216362
#        229457
#        244319
#        255727
#        267385
#        279588
#        294296
#        309755
#        323850
#
# Disc length: 4483 seconds
#
# Revision: 0
# Processed by: cddbd v1.5.2PL0 Copyright (c) Steve Scherf et al.
# Submitted via: ExactAudioCopy v0.99pb4
#
DISCID=5f118119
DTITLE=Various Artist - STorefront and Streetcorner Gospel
DYEAR=2003
DGENRE=Gospel
TTITLE0=Washington Phillips - Mother's Last Word to Her Son
TTITLE1=Washington Phillips - Take Your Burden to the Lord and Leave I
TTITLE1=t There
TTITLE2=Washington Phillips - Paul and Silas in Jail
TTITLE3=Washington Phillips - Lift Him Up That's All
TTITLE4=Washington Phillips - Denomination Blues Pt.1
TTITLE5=Washington Phillips - Denomination Blues Pt. 2
TTITLE6=Washington Phillips - I Am Born to Preach the Gospel
TTITLE7=Washington Phillips - Train Your Child
TTITLE8=Washington Phillips - Jesus Is My Friend
TTITLE9=Washington Phillips - What Are They Doing in Heaven Today
TTITLE10=Washington Phillips - A Mother's Last Word to Her Daughter
TTITLE11=Washington Phillips - I've Got the Key to the Kingdom
TTITLE12=Washington Phillips - You Can't Stop a Tattler Pt. 1
TTITLE13=Washington Phillips - You Can't Stop a Tattler Pt. 2
TTITLE14=Washington Phillips - I Had a Good Father and Mother
TTITLE15=Washington Phillips - The Church Needs Good Deacons
TTITLE16=A.C. Forehand and Blind Mamie Forehand - Mother's Prayer #1
TTITLE17=A.C. Forehand and Blind Mamie Forehand - Mother's Prayer #2
TTITLE18=A.C. Forehand and Blind Mamie Forehand - I'm So Glad Today #1
TTITLE19=A.C. Forehand and Blind Mamie Forehand - I'm So Glad Today #2
TTITLE20=A.C. Forehand and Blind Mamie Forehand - Honey in the Rock
TTITLE21=A.C. Forehand and Blind Mamie Forehand - Wouldn't Mind Dying 
TTITLE21=If Dying Was All #1
TTITLE22=A.C. Forehand and Blind Mamie Forehand - Wouldn't Mind Dying 
TTITLE22=If Dying Was All #2
TTITLE23=Luther Magby - Blessed Are the Poor in Spirit
TTITLE24=Luther Magby - Jesus Is Getting Us Ready for the Great Day
EXTD=
EXTT0=
EXTT1=
EXTT2=
EXTT3=
EXTT4=
EXTT5=
EXTT6=
EXTT7=
EXTT8=
EXTT9=
EXTT10=
EXTT11=
EXTT12=
EXTT13=
EXTT14=
EXTT15=
EXTT16=
EXTT17=
EXTT18=
EXTT19=
EXTT20=
EXTT21=
EXTT22=
EXTT23=
EXTT24=
PLAYORDER=
